<?xml version="1.0" encoding="UTF-8"?>
<svg xmlns="http://www.w3.org/2000/svg" xmlns:xlink="http://www.w3.org/1999/xlink" width="76pt" height="58pt" viewBox="0 0 76 58" version="1.1">
<g id="surface1">
<path style=" stroke:none;fill-rule:evenodd;fill:#b3b3b4;fill-opacity:1;" d="M 61.058594 25.972656 C 63.796875 26.792969 66.25 28.527344 63.347656 30.609375 C 61.132813 32.191406 56.570313 33.230469 54.785156 33.640625 C 47.921875 35.207031 40.300781 35.527344 35.023438 35.324219 C 30.464844 35.152344 26.683594 34.488281 23.847656 33.570313 C 25.847656 34.050781 27.902344 34.410156 29.992188 34.652344 C 34.9375 35.226563 40.058594 35.164063 45.023438 34.59375 C 48.371094 34.210938 53.492188 33.417969 57.546875 32.136719 C 61.054688 31.027344 65.941406 28.3125 61.058594 25.972656 "/>
<path style=" stroke:none;fill-rule:evenodd;fill:#b3b3b4;fill-opacity:1;" d="M 63.710938 29.535156 C 65.84375 30.355469 67.664063 31.4375 66.921875 32.671875 C 66.828125 32.828125 66.699219 32.984375 66.519531 33.144531 C 64.792969 34.714844 60.839844 35.574219 58.136719 36.078125 C 47.789063 38 32.878906 37.242188 24.660156 34.109375 C 26.726563 34.777344 28.933594 35.238281 31.1875 35.574219 C 33.964844 35.984375 36.800781 36.234375 39.644531 36.355469 C 43.777344 36.527344 48.019531 36.46875 52.105469 36.109375 C 54.386719 35.90625 56.636719 35.589844 58.765625 35.09375 C 60.136719 34.777344 61.699219 34.359375 63.019531 33.800781 C 64.210938 33.292969 65.671875 32.511719 65.546875 31.46875 C 65.503906 31.132813 65.300781 30.769531 64.890625 30.378906 C 64.601563 30.105469 64.210938 29.824219 63.710938 29.535156 "/>
<path style=" stroke:none;fill-rule:nonzero;fill:#b3b3b4;fill-opacity:1;" d="M 8.550781 23.417969 L 8.550781 23.1875 C 9.527344 23.203125 10.515625 23.207031 11.511719 23.195313 C 11.972656 23.1875 12.175781 23.167969 12.621094 23.339844 C 14.960938 24.257813 13.703125 27.652344 11.246094 27.53125 L 11.238281 27.320313 C 13.613281 27.101563 13.128906 23.109375 10.699219 23.703125 L 10.699219 30.265625 C 10.726563 30.78125 11.070313 30.960938 11.703125 30.828125 L 11.703125 31.082031 C 10.730469 31.046875 9.757813 31.042969 8.785156 31.082031 L 8.785156 30.847656 C 9.238281 30.960938 9.492188 30.78125 9.546875 30.316406 L 9.546875 23.808594 C 9.546875 23.464844 9.246094 23.40625 9.027344 23.410156 L 8.550781 23.417969 "/>
<path style=" stroke:none;fill-rule:nonzero;fill:#b3b3b4;fill-opacity:1;" d="M 20.808594 23.820313 L 22.734375 23.820313 L 22.734375 30.476563 C 22.734375 30.679688 22.542969 30.839844 22.328125 30.863281 L 22.003906 30.898438 L 22.003906 31.09375 L 24.992188 31.09375 L 24.992188 30.859375 L 24.378906 30.839844 C 24.148438 30.828125 23.964844 30.640625 23.964844 30.378906 L 23.964844 23.78125 L 25.625 23.78125 C 26.027344 23.910156 26.253906 24.199219 26.273438 24.6875 L 26.476563 24.6875 L 26.453125 23.082031 C 26.347656 23.152344 26.222656 23.195313 26.074219 23.222656 L 20.792969 23.222656 C 20.578125 23.207031 20.417969 23.136719 20.269531 23.054688 L 19.980469 24.601563 L 20.164063 24.625 C 20.257813 24.207031 20.441406 23.898438 20.808594 23.820313 "/>
<path style=" stroke:none;fill-rule:nonzero;fill:#b3b3b4;fill-opacity:1;" d="M 26.757813 29.648438 L 29.273438 23.035156 C 29.359375 22.953125 29.445313 22.964844 29.527344 23.039063 L 32.210938 30.136719 C 32.40625 30.597656 32.726563 30.863281 33.246094 30.828125 L 33.246094 31.078125 L 30.921875 31.078125 L 30.902344 30.867188 C 30.894531 30.808594 31.195313 30.78125 31.121094 30.496094 L 30.320313 28.359375 L 27.9375 28.359375 L 27.285156 30.039063 C 27.0625 30.574219 27.066406 30.976563 27.835938 30.863281 L 27.835938 31.09375 L 25.539063 31.09375 L 25.542969 30.851563 L 26.015625 30.84375 C 26.496094 30.679688 26.589844 30.089844 26.757813 29.648438 Z M 28.109375 27.890625 L 30.09375 27.890625 L 29.152344 25.042969 Z M 28.109375 27.890625 "/>
<path style=" stroke:none;fill-rule:nonzero;fill:#b3b3b4;fill-opacity:1;" d="M 34.371094 22.945313 L 39.777344 29.035156 L 39.761719 23.6875 C 39.761719 23.371094 39.160156 23.359375 38.785156 23.355469 L 38.785156 23.144531 L 41.285156 23.144531 L 41.285156 23.355469 C 40.996094 23.382813 40.460938 23.40625 40.457031 23.65625 L 40.367188 31.027344 C 40.367188 31.199219 40.144531 31.132813 40.050781 31.027344 L 34.957031 25.335938 L 34.820313 25.328125 L 34.886719 30.394531 C 35.058594 30.878906 35.414063 30.816406 35.875 30.824219 L 35.875 31.078125 L 33.1875 31.078125 L 33.203125 30.832031 C 33.660156 30.882813 34.078125 30.78125 34.203125 30.398438 L 34.253906 23.132813 C 34.253906 23.007813 34.332031 22.902344 34.371094 22.945313 "/>
<path style=" stroke:none;fill-rule:nonzero;fill:#b3b3b4;fill-opacity:1;" d="M 53.351563 23.210938 L 56.378906 23.210938 L 56.378906 23.410156 L 55.773438 23.410156 C 55.601563 23.410156 55.425781 23.554688 55.425781 23.800781 L 55.449219 29.808594 C 55.453125 30.09375 55.570313 30.4375 55.949219 30.4375 L 57.519531 30.4375 C 57.914063 30.40625 58.160156 30.160156 58.261719 29.472656 L 58.460938 29.472656 C 58.421875 30.015625 58.359375 30.539063 58.238281 31.015625 L 53.566406 31.015625 L 53.566406 30.792969 C 53.914063 30.800781 54.0625 30.683594 54.226563 30.480469 L 54.234375 23.839844 C 54.234375 23.507813 54.03125 23.394531 53.824219 23.394531 L 53.355469 23.394531 L 53.351563 23.210938 "/>
<path style=" stroke:none;fill-rule:nonzero;fill:#b3b3b4;fill-opacity:1;" d="M 59.363281 23.210938 L 62.164063 23.210938 L 62.164063 23.410156 L 61.699219 23.410156 C 61.53125 23.410156 61.355469 23.554688 61.355469 23.800781 L 61.375 28.527344 L 61.375 30.402344 C 61.398438 30.625 61.46875 30.808594 61.75 30.820313 L 62.40625 30.820313 L 62.40625 31.082031 L 59.371094 31.082031 L 59.375 30.863281 L 59.835938 30.851563 C 60.050781 30.847656 60.191406 30.65625 60.191406 30.359375 C 60.191406 28.183594 60.160156 26.042969 60.160156 23.839844 C 60.160156 23.507813 59.957031 23.394531 59.75 23.394531 L 59.363281 23.394531 L 59.363281 23.210938 "/>
<path style=" stroke:none;fill-rule:nonzero;fill:#b3b3b4;fill-opacity:1;" d="M 42.5 23.210938 L 45.421875 23.210938 L 45.421875 23.410156 L 44.957031 23.410156 C 44.789063 23.410156 44.609375 23.554688 44.613281 23.800781 L 44.632813 28.527344 L 44.632813 29.566406 C 44.632813 31.570313 44.25 32.605469 42.515625 33.488281 C 41.949219 33.777344 42.074219 33.730469 42.441406 33.382813 C 43.511719 32.367188 43.453125 31.207031 43.449219 29.730469 C 43.445313 27.773438 43.417969 25.832031 43.417969 23.839844 C 43.421875 23.507813 43.214844 23.394531 43.007813 23.394531 L 42.503906 23.394531 L 42.5 23.210938 "/>
<path style=" stroke:none;fill-rule:evenodd;fill:#b3b3b4;fill-opacity:1;" d="M 63.78125 20.734375 C 63.984375 20.734375 64.183594 20.785156 64.382813 20.890625 C 64.574219 20.996094 64.726563 21.148438 64.835938 21.34375 C 64.945313 21.539063 65 21.742188 65 21.953125 C 65 22.164063 64.945313 22.367188 64.839844 22.558594 C 64.730469 22.753906 64.582031 22.90625 64.386719 23.011719 C 64.195313 23.117188 63.992188 23.171875 63.78125 23.171875 C 63.570313 23.171875 63.367188 23.117188 63.175781 23.011719 C 62.980469 22.90625 62.832031 22.753906 62.722656 22.558594 C 62.613281 22.367188 62.5625 22.164063 62.5625 21.953125 C 62.5625 21.742188 62.613281 21.539063 62.726563 21.34375 C 62.835938 21.148438 62.988281 20.996094 63.183594 20.890625 C 63.378906 20.785156 63.578125 20.734375 63.78125 20.734375 Z M 63.78125 20.933594 C 63.609375 20.933594 63.441406 20.980469 63.28125 21.066406 C 63.117188 21.15625 62.992188 21.28125 62.898438 21.441406 C 62.808594 21.609375 62.765625 21.777344 62.765625 21.953125 C 62.765625 22.128906 62.808594 22.296875 62.898438 22.460938 C 62.988281 22.621094 63.113281 22.746094 63.277344 22.835938 C 63.4375 22.925781 63.605469 22.96875 63.78125 22.96875 C 63.957031 22.96875 64.125 22.925781 64.289063 22.835938 C 64.449219 22.746094 64.574219 22.621094 64.664063 22.460938 C 64.753906 22.296875 64.796875 22.128906 64.796875 21.953125 C 64.796875 21.777344 64.753906 21.609375 64.660156 21.441406 C 64.570313 21.28125 64.441406 21.15625 64.28125 21.066406 C 64.117188 20.980469 63.953125 20.933594 63.78125 20.933594 Z M 63.246094 22.625 L 63.246094 21.316406 L 63.699219 21.316406 C 63.851563 21.316406 63.960938 21.328125 64.03125 21.351563 C 64.101563 21.375 64.15625 21.417969 64.199219 21.480469 C 64.238281 21.539063 64.257813 21.601563 64.257813 21.671875 C 64.257813 21.765625 64.222656 21.847656 64.15625 21.921875 C 64.085938 21.992188 63.996094 22.03125 63.882813 22.039063 C 63.929688 22.058594 63.96875 22.082031 63.996094 22.109375 C 64.046875 22.160156 64.113281 22.246094 64.1875 22.371094 L 64.347656 22.625 L 64.089844 22.625 L 63.972656 22.417969 C 63.882813 22.257813 63.808594 22.15625 63.75 22.113281 C 63.714844 22.085938 63.65625 22.070313 63.582031 22.070313 L 63.457031 22.070313 L 63.457031 22.625 Z M 63.457031 21.890625 L 63.714844 21.890625 C 63.835938 21.890625 63.921875 21.871094 63.96875 21.835938 C 64.011719 21.796875 64.035156 21.75 64.035156 21.691406 C 64.035156 21.652344 64.023438 21.617188 64 21.585938 C 63.980469 21.554688 63.949219 21.535156 63.910156 21.515625 C 63.871094 21.503906 63.800781 21.496094 63.699219 21.496094 L 63.457031 21.496094 L 63.457031 21.890625 "/>
<path style=" stroke:none;fill-rule:nonzero;fill:#b3b3b4;fill-opacity:1;" d="M 14.410156 29.648438 L 16.925781 23.035156 C 17.011719 22.953125 17.09375 22.964844 17.179688 23.039063 L 19.859375 30.136719 C 20.054688 30.597656 20.382813 30.863281 20.898438 30.828125 L 20.898438 31.078125 L 18.574219 31.078125 L 18.550781 30.867188 C 18.546875 30.808594 18.847656 30.78125 18.773438 30.496094 L 17.972656 28.359375 L 15.589844 28.359375 L 14.9375 30.039063 C 14.714844 30.574219 14.714844 30.976563 15.488281 30.863281 L 15.488281 31.09375 L 13.191406 31.09375 L 13.195313 30.851563 L 13.664063 30.84375 C 14.148438 30.679688 14.238281 30.089844 14.410156 29.648438 Z M 15.761719 27.890625 L 17.746094 27.890625 L 16.804688 25.042969 Z M 15.761719 27.890625 "/>
<path style=" stroke:none;fill-rule:nonzero;fill:#b3b3b4;fill-opacity:1;" d="M 46.636719 29.648438 L 49.152344 23.035156 C 49.238281 22.953125 49.320313 22.964844 49.40625 23.039063 L 52.089844 30.136719 C 52.285156 30.597656 52.609375 30.863281 53.128906 30.828125 L 53.128906 31.078125 L 50.800781 31.078125 L 50.78125 30.867188 C 50.773438 30.808594 51.074219 30.78125 51 30.496094 L 50.199219 28.359375 L 47.816406 28.359375 L 47.164063 30.039063 C 46.941406 30.574219 46.941406 30.976563 47.714844 30.863281 L 47.714844 31.09375 L 45.417969 31.09375 L 45.421875 30.851563 L 45.894531 30.84375 C 46.375 30.679688 46.46875 30.089844 46.636719 29.648438 Z M 47.988281 27.890625 L 49.972656 27.890625 L 49.03125 25.042969 Z M 47.988281 27.890625 "/>
</g>
</svg>
