<svg id="svg" version="1.1" xmlns="http://www.w3.org/2000/svg" xmlns:xlink="http://www.w3.org/1999/xlink" width="400" height="142.04047569372003" viewBox="0, 0, 400,142.04047569372003"><g id="svgg"><path id="path1" d="M10.667 18.446 L 10.667 36.891 11.958 35.648 C 16.024 31.735,22.102 28.212,29.333 25.576 L 31.750 24.696 31.793 12.348 L 31.835 0.000 21.251 0.000 L 10.667 0.000 10.667 18.446 M55.667 9.167 C 55.667 14.208,55.708 18.333,55.757 18.333 C 56.011 18.333,61.604 16.879,64.083 16.168 C 68.339 14.949,71.755 13.688,75.542 11.938 L 76.833 11.342 76.833 5.671 L 76.833 0.000 66.250 0.000 L 55.667 0.000 55.667 9.167 M381.333 1.000 L 381.333 1.833 382.750 1.833 L 384.167 1.833 384.167 5.667 L 384.167 9.500 385.083 9.500 L 386.000 9.500 386.000 5.667 L 386.000 1.833 387.417 1.833 L 388.833 1.833 388.833 1.000 L 388.833 0.167 385.083 0.167 L 381.333 0.167 381.333 1.000 M390.000 4.827 L 390.000 9.500 390.917 9.500 L 391.833 9.500 391.839 6.292 L 391.845 3.083 392.302 4.250 C 392.554 4.892,393.090 6.335,393.495 7.458 L 394.231 9.500 395.010 9.500 L 395.789 9.500 396.936 6.375 L 398.083 3.250 398.129 6.375 L 398.174 9.500 399.087 9.500 L 400.000 9.500 400.000 4.827 L 400.000 0.153 398.645 0.202 L 397.289 0.250 396.562 2.167 C 396.162 3.221,395.673 4.518,395.475 5.050 C 395.062 6.161,394.976 6.129,394.425 4.654 C 394.205 4.065,393.738 2.833,393.386 1.917 L 392.748 0.250 391.374 0.202 L 390.000 0.153 390.000 4.827 M239.833 51.083 L 239.833 83.000 247.583 83.000 L 255.333 83.000 255.333 51.083 L 255.333 19.167 247.583 19.167 L 239.833 19.167 239.833 51.083 M206.177 37.845 C 202.303 38.187,197.484 39.211,194.667 40.290 L 193.417 40.769 193.466 46.003 C 193.520 51.751,193.489 51.488,194.066 51.110 C 195.954 49.873,200.634 48.552,204.476 48.171 C 212.728 47.354,217.217 49.572,217.716 54.713 C 217.782 55.392,217.753 55.498,217.522 55.431 C 215.627 54.881,207.966 54.771,204.417 55.243 C 193.236 56.730,187.844 61.555,187.837 70.083 C 187.831 78.496,193.611 83.612,203.500 83.945 C 209.963 84.163,214.326 82.132,217.670 77.349 L 218.417 76.281 218.522 77.349 C 218.579 77.936,218.681 79.448,218.747 80.708 L 218.867 83.000 225.952 83.000 L 233.037 83.000 232.926 82.407 C 232.359 79.385,232.294 77.912,232.169 65.333 C 232.034 51.671,232.053 51.965,231.140 49.167 C 228.399 40.763,219.387 36.675,206.177 37.845 M279.010 37.845 C 275.117 38.189,271.089 39.040,267.833 40.205 L 266.250 40.771 266.298 45.094 C 266.325 47.471,266.388 49.840,266.438 50.357 L 266.529 51.297 268.139 50.542 C 276.126 46.795,286.792 47.251,289.466 51.454 C 290.291 52.750,290.931 55.598,290.360 55.433 C 284.713 53.804,272.222 55.371,267.167 58.342 C 258.003 63.728,258.469 77.284,267.983 82.075 C 272.792 84.496,280.245 84.654,284.750 82.429 C 287.057 81.290,289.175 79.354,290.820 76.882 L 291.287 76.180 291.392 77.798 C 291.450 78.688,291.546 80.223,291.606 81.208 L 291.716 83.000 298.793 83.000 L 305.870 83.000 305.759 82.404 C 305.174 79.287,305.124 78.168,305.001 65.417 C 304.868 51.661,304.887 51.968,303.973 49.167 C 301.236 40.774,292.202 36.677,279.010 37.845 M365.750 37.765 C 362.167 38.111,361.140 38.244,359.333 38.601 C 357.322 38.998,354.479 39.796,352.750 40.449 L 351.917 40.763 351.975 46.007 C 352.007 48.890,352.056 51.274,352.084 51.304 C 352.112 51.333,352.573 51.133,353.109 50.859 C 359.057 47.820,368.601 47.091,372.844 49.353 C 374.685 50.334,375.809 51.984,376.165 54.230 C 376.385 55.617,376.575 55.498,374.583 55.212 C 366.699 54.082,356.890 55.640,352.086 58.787 C 343.358 64.504,344.647 78.374,354.281 82.398 C 362.771 85.944,371.540 83.899,376.228 77.278 L 376.917 76.307 377.023 76.945 C 377.081 77.296,377.183 78.802,377.249 80.292 L 377.369 83.000 384.434 83.000 C 389.976 83.000,391.500 82.955,391.499 82.792 C 391.499 82.677,391.390 81.946,391.258 81.167 C 390.814 78.562,390.667 74.326,390.667 64.137 C 390.667 51.772,390.558 50.755,388.858 47.250 C 386.373 42.125,381.878 39.226,374.500 37.992 C 373.414 37.810,367.002 37.644,365.750 37.765 M303.000 38.602 C 303.000 38.718,307.073 45.858,307.505 46.500 C 307.659 46.729,307.991 47.292,308.242 47.750 C 308.685 48.558,310.192 51.160,310.510 51.667 C 310.837 52.188,318.875 66.097,319.099 66.530 C 319.291 66.901,319.333 68.433,319.333 74.992 L 319.333 83.000 327.000 83.000 L 334.667 83.000 334.667 75.038 L 334.667 67.077 341.333 55.431 C 345.000 49.026,348.000 43.761,348.000 43.731 C 348.000 43.701,348.365 43.056,348.811 42.297 C 349.257 41.538,349.928 40.373,350.302 39.708 L 350.983 38.500 342.435 38.500 L 333.886 38.500 331.124 44.958 C 329.469 48.828,328.110 52.266,327.736 53.534 C 327.106 55.665,326.962 55.888,326.760 55.043 C 326.522 54.047,325.292 50.420,324.917 49.609 C 324.699 49.136,324.335 48.300,324.108 47.750 C 323.881 47.200,323.461 46.242,323.173 45.621 C 322.885 45.000,322.441 43.988,322.186 43.371 C 321.931 42.754,321.361 41.406,320.919 40.375 L 320.116 38.500 311.558 38.500 C 306.851 38.500,303.000 38.546,303.000 38.602 M135.750 38.857 C 130.381 39.539,125.699 42.564,123.311 46.894 L 122.839 47.750 122.836 43.708 L 122.833 39.667 115.750 39.667 L 108.667 39.667 108.667 61.833 L 108.667 84.000 116.405 84.000 L 124.144 84.000 124.217 72.708 C 124.295 60.640,124.314 60.342,125.184 57.677 C 127.662 50.084,136.398 49.204,138.340 56.351 C 138.790 58.009,138.791 58.035,138.814 71.875 L 138.833 84.000 146.589 84.000 L 154.345 84.000 154.333 73.208 C 154.319 60.472,154.492 58.693,156.043 55.693 C 158.608 50.729,165.514 50.061,167.718 54.563 C 168.777 56.725,168.737 56.132,168.794 70.708 L 168.845 84.000 176.601 84.000 L 184.358 84.000 184.288 68.708 C 184.204 50.422,184.119 49.480,182.189 45.417 C 177.678 35.923,159.604 36.427,153.408 46.220 L 152.955 46.937 152.403 45.879 C 149.571 40.446,143.476 37.876,135.750 38.857 M85.167 61.833 L 85.167 84.000 93.083 84.000 L 101.000 84.000 101.000 61.833 L 101.000 39.667 93.083 39.667 L 85.167 39.667 85.167 61.833 M75.833 46.185 C 71.181 50.437,66.549 53.134,58.377 56.351 L 55.670 57.417 55.668 70.708 L 55.667 84.000 66.250 84.000 L 76.833 84.000 76.833 64.667 C 76.833 54.033,76.815 45.337,76.792 45.341 C 76.769 45.345,76.337 45.725,75.833 46.185 M217.270 63.437 C 217.778 63.527,217.787 63.546,217.714 64.306 C 217.122 70.398,212.088 74.580,206.638 73.508 C 200.714 72.342,200.741 65.632,206.677 63.820 C 208.620 63.227,214.807 63.004,217.270 63.437 M288.209 63.316 C 290.905 63.468,290.657 63.317,290.486 64.705 C 289.730 70.817,284.550 74.733,278.995 73.392 C 274.294 72.258,273.717 66.550,278.083 64.372 C 280.223 63.304,282.955 63.019,288.209 63.316 M375.795 63.442 L 376.340 63.538 376.241 64.394 C 375.523 70.612,370.114 74.870,364.750 73.441 C 359.228 71.969,359.331 65.720,364.907 63.918 C 367.038 63.229,373.092 62.965,375.795 63.442 M27.333 64.661 C 20.882 66.319,17.384 67.509,12.542 69.694 L 10.667 70.540 10.667 77.270 L 10.667 84.000 21.250 84.000 L 31.833 84.000 31.833 73.750 C 31.833 68.112,31.815 63.506,31.792 63.513 C 31.769 63.520,29.762 64.037,27.333 64.661 M17.750 112.436 C 12.956 113.037,10.417 115.655,10.417 119.996 C 10.417 123.404,11.491 125.043,15.292 127.431 C 18.648 129.540,18.917 129.710,19.578 130.147 C 23.194 132.534,23.619 136.013,20.495 137.640 C 17.916 138.983,14.189 137.904,11.447 135.020 C 10.913 134.459,10.444 134.000,10.405 134.000 C 10.366 134.000,10.333 135.220,10.333 136.712 L 10.333 139.423 11.458 140.103 C 19.102 144.718,27.726 140.595,26.529 132.897 C 26.042 129.766,24.403 127.864,19.889 125.192 C 15.388 122.527,14.276 121.420,14.258 119.583 C 14.221 115.719,20.715 115.150,24.711 118.667 L 25.500 119.362 25.500 116.856 L 25.500 114.349 24.125 113.676 C 22.163 112.714,19.564 112.209,17.750 112.436 M147.500 112.502 C 138.982 113.337,132.848 120.705,133.819 128.935 C 134.021 130.652,134.933 133.600,135.500 134.368 C 135.683 134.617,135.833 134.866,135.833 134.922 C 135.833 135.567,138.455 138.343,140.144 139.486 C 144.787 142.631,153.122 142.877,158.833 140.039 L 159.750 139.583 159.796 137.192 L 159.843 134.800 158.963 135.326 C 149.365 141.065,138.700 137.255,138.219 127.917 C 137.723 118.274,147.561 113.620,157.917 118.599 L 159.417 119.320 159.463 117.054 C 159.489 115.807,159.477 114.755,159.437 114.715 C 158.902 114.180,153.544 112.746,151.191 112.508 C 149.332 112.320,149.362 112.320,147.500 112.502 M297.417 112.503 C 288.170 113.755,287.656 127.653,296.794 129.357 C 298.410 129.658,301.625 129.152,302.458 128.465 C 302.901 128.099,301.167 132.003,300.666 132.500 C 300.620 132.546,300.161 133.108,299.647 133.750 C 298.296 135.437,297.200 136.499,295.500 137.768 C 293.706 139.108,293.736 138.838,295.189 140.531 C 296.660 142.244,296.419 142.191,297.945 141.138 C 311.633 131.687,311.244 110.629,297.417 112.503 M336.417 112.565 C 335.775 112.688,334.800 112.968,334.250 113.187 L 333.250 113.585 333.203 115.626 C 333.177 116.769,333.223 117.667,333.307 117.667 C 333.391 117.667,333.899 117.471,334.438 117.232 C 339.639 114.920,344.243 117.481,342.916 121.949 C 342.434 123.574,340.931 124.511,338.389 124.771 L 337.323 124.880 337.370 126.801 L 337.417 128.723 339.113 129.007 C 342.335 129.547,343.838 131.442,343.310 134.299 C 342.645 137.897,338.873 138.843,334.193 136.584 C 333.337 136.171,332.606 135.833,332.568 135.833 C 332.531 135.833,332.500 136.876,332.500 138.151 L 332.500 140.469 333.708 140.970 C 340.998 143.996,347.847 140.221,347.831 133.186 C 347.824 130.269,346.559 127.720,344.682 126.840 L 343.837 126.445 344.643 125.902 C 348.546 123.273,348.360 116.549,344.310 113.844 C 342.384 112.558,339.164 112.036,336.417 112.565 M380.522 112.505 C 369.953 114.042,369.378 139.079,379.851 141.768 C 382.870 142.543,385.601 141.465,387.973 138.560 C 388.614 137.775,389.827 135.159,390.242 133.667 C 392.876 124.205,389.165 113.522,382.887 112.494 C 381.818 112.319,381.800 112.319,380.522 112.505 M51.167 127.250 L 51.167 141.667 53.333 141.667 L 55.500 141.667 55.500 127.250 L 55.500 112.833 53.333 112.833 L 51.167 112.833 51.167 127.250 M81.833 127.255 L 81.833 141.677 83.875 141.630 L 85.917 141.583 86.000 130.671 L 86.083 119.758 86.472 120.254 C 86.686 120.527,87.136 121.050,87.473 121.417 C 87.810 121.783,88.302 122.346,88.566 122.667 C 88.830 122.987,89.477 123.737,90.002 124.333 C 90.528 124.929,92.222 126.879,93.767 128.667 C 95.311 130.454,96.652 131.999,96.746 132.100 C 96.840 132.201,98.746 134.395,100.981 136.975 L 105.045 141.667 106.939 141.667 L 108.833 141.667 108.833 127.250 L 108.833 112.833 106.751 112.833 L 104.669 112.833 104.626 123.807 L 104.583 134.780 100.167 129.693 C 97.737 126.896,94.891 123.627,93.842 122.429 C 92.792 121.230,91.780 120.070,91.592 119.850 C 91.404 119.630,89.953 117.961,88.368 116.142 L 85.487 112.833 83.660 112.833 L 81.833 112.833 81.833 127.255 M184.833 127.250 L 184.833 141.667 193.333 141.667 L 201.833 141.667 201.833 139.750 L 201.833 137.833 195.500 137.833 L 189.167 137.833 189.167 133.417 L 189.167 129.000 195.083 129.000 L 201.000 129.000 201.000 127.083 L 201.000 125.167 195.083 125.167 L 189.167 125.167 189.167 120.917 L 189.167 116.667 195.250 116.667 L 201.333 116.667 201.333 114.750 L 201.333 112.833 193.083 112.833 L 184.833 112.833 184.833 127.250 M255.944 112.944 C 255.883 113.006,255.833 119.493,255.833 127.361 L 255.833 141.667 258.000 141.667 L 260.167 141.667 260.167 127.250 L 260.167 112.833 258.111 112.833 C 256.981 112.833,256.006 112.883,255.944 112.944 M300.328 116.597 C 302.758 117.319,304.320 120.781,303.518 123.665 C 303.174 124.900,299.459 125.874,297.547 125.232 C 291.835 123.312,294.550 114.881,300.328 116.597 M382.964 116.758 C 387.765 118.761,388.011 134.788,383.282 137.500 C 379.692 139.559,376.917 135.666,376.710 128.280 C 376.475 119.890,379.059 115.130,382.964 116.758 " stroke="none" fill="#b3b3b4" fill-rule="evenodd"></path><path id="path2" d="" stroke="none" fill="#b3b3b4" fill-rule="evenodd"></path><path id="path3" d="" stroke="none" fill="#b3b3b4" fill-rule="evenodd"></path><path id="path4" d="M85.081 61.750 C 85.081 73.942,85.101 78.905,85.125 72.779 C 85.149 66.653,85.149 56.678,85.125 50.612 C 85.101 44.546,85.081 49.558,85.081 61.750 M154.205 64.500 C 154.205 64.821,154.240 64.952,154.282 64.792 C 154.323 64.631,154.323 64.369,154.282 64.208 C 154.240 64.048,154.205 64.179,154.205 64.500 " stroke="none" fill="#b3b3b4" fill-rule="evenodd"></path><path id="path0" d="M86.127 9.155 C 78.275 15.876,70.483 19.142,52.333 23.319 C 36.650 26.928,30.234 28.978,23.000 32.693 C 9.957 39.391,1.435 50.666,0.093 63.000 L -0.007 63.917 0.371 63.428 C 0.580 63.159,1.303 62.197,1.980 61.289 C 6.226 55.591,12.146 51.093,20.458 47.251 C 26.175 44.608,29.367 43.481,44.333 38.823 C 49.971 37.069,54.658 35.578,54.750 35.511 C 54.842 35.444,55.854 35.066,57.000 34.672 C 73.762 28.899,83.597 20.525,87.101 9.042 C 87.375 8.146,87.295 8.155,86.127 9.155 M86.397 19.500 C 83.165 24.247,79.711 27.386,72.833 31.829 C 67.606 35.205,58.933 38.499,39.697 44.413 C 22.772 49.616,14.318 53.822,7.959 60.201 C 4.598 63.573,1.050 69.617,0.408 73.064 L 0.288 73.712 1.686 72.502 C 6.741 68.127,13.376 64.639,21.333 62.174 C 23.943 61.366,29.432 59.973,41.417 57.079 C 66.447 51.035,79.282 42.396,84.990 27.750 C 85.276 27.017,85.581 26.267,85.668 26.083 C 86.218 24.926,87.419 19.429,87.301 18.615 C 87.258 18.321,87.082 18.493,86.397 19.500 M10.667 98.333 L 10.667 99.333 200.750 99.333 L 390.833 99.333 390.833 98.333 L 390.833 97.333 200.750 97.333 L 10.667 97.333 10.667 98.333 " stroke="none" fill="#b3b3b4" fill-rule="evenodd"></path></g></svg>