<?xml version="1.0" encoding="UTF-8"?>
<svg width="116px" height="26px" viewBox="0 0 116 26" version="1.1" xmlns="http://www.w3.org/2000/svg" xmlns:xlink="http://www.w3.org/1999/xlink">
    <!-- Generator: Sketch 53.1 (72631) - https://sketchapp.com -->
    <title>Group 4</title>
    <desc>Created with Sketch.</desc>
    <g id="Page-1" stroke="none" stroke-width="1" fill="none" fill-rule="evenodd">
        <g id="Desktop" transform="translate(-742.000000, -18.000000)" fill="#b3b3b4">
            <g id="Group-4" transform="translate(742.000000, 18.000000)">
                <path d="M12.2059285,10.9363602 C12.2059285,4.95001871 11.2011545,2.46849101 8.43875002,2.46849101 C6.00239033,2.46849101 4.77175939,4.20811665 4.77175939,10.2457797 C4.77175939,16.2063621 5.72614988,18.6625239 8.5391309,18.6625239 C11.025488,18.6625239 12.2059285,16.9482641 12.2059285,10.9363602 M-7.62057084e-13,10.7829852 C-7.62057084e-13,4.05454508 4.54570938,1.39407997 8.58951437,1.39407997 C12.9091737,1.39407997 16.9776879,4.02917923 16.9776879,10.3735922 C16.9776879,17.1529607 12.4319785,19.7369349 8.3881735,19.7369349 C4.06870718,19.7369349 -7.62057084e-13,16.9228983 -7.62057084e-13,10.7829852" id="Fill-1"></path>
                <path d="M37.4325307,11.2178032 L41.7270948,10.9875441 C41.7270948,7.89212345 41.3255713,6.7663908 39.8185069,6.7663908 C38.5374925,6.7663908 37.5329116,7.9943734 37.4325307,11.2178032 M33.4643974,12.7271698 C33.4643974,8.27575741 36.7039972,5.79422971 40.0192687,5.79422971 C43.4447661,5.79422971 45.5944612,7.51812459 45.7168486,12.0283307 C45.7193581,12.1160297 45.6492846,12.1899643 45.5628026,12.1899643 L37.5902445,12.1899643 C37.5037625,12.1899643 37.433882,12.2638988 37.4360054,12.3517945 C37.5483548,16.4154436 39.0984672,17.5368502 41.6518092,17.5368502 C42.8980764,17.5368502 43.9028503,17.2418985 44.7437332,16.8620006 C44.8056991,16.8338818 44.87751,16.8503991 44.9217162,16.9030972 L45.2556757,17.3032484 C45.3060592,17.3636152 45.3054801,17.4528873 45.252201,17.5103046 C44.3360324,18.4944604 42.4708785,19.7369939 40.0192687,19.7369939 C35.6492258,19.7369939 33.4643974,17.0763322 33.4643974,12.7271698" id="Fill-5"></path>
                <path d="M85.1817639,12.9318663 C85.1817639,7.76411438 84.2024712,6.79195329 82.494452,6.79195329 C80.9121019,6.79195329 79.9829997,7.96881092 79.9829997,12.3690983 C79.9829997,17.6137343 80.811721,18.7390737 82.6450233,18.7390737 C84.1522808,18.7390737 85.1817639,17.8437967 85.1817639,12.9318663 M75.7637212,12.8040539 C75.7637212,7.89192682 79.1791805,5.79422971 82.5699307,5.79422971 C86.2116331,5.79422971 89.4012354,8.01993589 89.4012354,12.6760448 C89.4012354,17.5879752 86.0357735,19.7371906 82.5699307,19.7371906 C78.9282283,19.7371906 75.7637212,17.4855286 75.7637212,12.8040539" id="Fill-7"></path>
                <path d="M100.161602,12.9318663 C100.161602,7.76411438 99.1823094,6.79195329 97.4742902,6.79195329 C95.8919401,6.79195329 94.9628379,7.96881092 94.9628379,12.3690983 C94.9628379,17.6137343 95.7917523,18.7390737 97.6250545,18.7390737 C99.132119,18.7390737 100.161602,17.8437967 100.161602,12.9318663 M90.7433663,12.8040539 C90.7433663,7.89192682 94.1590187,5.79422971 97.5495758,5.79422971 C101.191278,5.79422971 104.380881,8.01993589 104.380881,12.6760448 C104.380881,17.5879752 101.015612,19.7371906 97.5495758,19.7371906 C93.9080665,19.7371906 90.7433663,17.4855286 90.7433663,12.8040539" id="Fill-9"></path>
                <path d="M56.0413499,5.79424937 C54.2080476,5.79424937 52.5504119,6.63859802 51.2194001,7.61056248 L51.1188262,7.61056248 L51.1682444,5.99756947 C51.1721052,5.87388636 51.0674775,5.77576573 50.9470204,5.78953015 L47.4325315,6.1953838 C47.329255,6.20718188 47.2510738,6.29606068 47.2510738,6.40204669 L47.2510738,19.2271403 C47.2510738,19.339222 47.3402583,19.4298705 47.4500982,19.4298705 L51.0452779,19.4298705 C51.1551177,19.4298705 51.2443023,19.339222 51.2443023,19.2271403 L51.2443023,8.5060361 C51.7967832,8.37802703 52.7009832,8.17352712 53.5802811,8.17352712 C54.7605285,8.17352712 55.3132025,8.65960766 55.3132025,10.2200993 L55.3132025,19.2271403 C55.3132025,19.339222 55.402387,19.4298705 55.5122269,19.4298705 L59.1325018,19.4298705 C59.2423416,19.4298705 59.3317192,19.339222 59.3317192,19.2271403 L59.3317192,9.22257231 C59.3317192,6.91998203 58.1763739,5.79424937 56.0413499,5.79424937" id="Fill-11"></path>
                <path d="M70.1063129,17.1530197 C69.7044033,17.3065912 69.0262533,17.7159843 67.9965772,17.7159843 C66.0877962,17.7159843 65.0832153,16.4111176 65.0832153,12.3946608 C65.0832153,8.17331082 66.3389414,6.81751578 68.1471485,6.81751578 C69.0766368,6.81751578 69.6793081,7.3547213 70.1063129,7.89192682 L70.1063129,17.1530197 Z M74.0995414,3.28713952 C74.0995414,1.96477235 74.1437476,0.749767619 74.1671054,0.251102465 C74.1738619,0.105199648 74.0522466,-0.0119945288 73.9095899,0.000983349779 L70.2924036,0.419421618 C70.1870037,0.42905671 70.1063129,0.518918687 70.1063129,0.626871041 L70.1063129,4.20817564 C70.1063129,5.12901511 70.1565034,6.07561371 70.1565034,6.07561371 C69.6291177,5.92204215 68.9258724,5.79422971 68.2479154,5.79422971 C64.3297796,5.79422971 60.9641246,7.91768594 60.9641246,13.2390094 C60.9641246,17.8949217 63.4002913,19.7369939 65.8868414,19.7369939 C67.644858,19.7369939 69.0513485,19.0206544 70.1314081,18.0742524 L70.231789,18.0742524 L70.1808264,19.4862849 C70.1750352,19.6367103 70.303986,19.7556742 70.4501174,19.7346343 L73.895884,19.3427417 C74.0126733,19.3262244 74.0995414,19.2243677 74.0995414,19.104224 L74.0995414,3.28713952 Z" id="Fill-13"></path>
                <path d="M113.714661,5.79424937 C112.25798,5.79424937 110.826395,6.91998203 110.048057,7.76413404 L109.947483,7.76413404 L109.996322,6.04495839 C110.000569,5.89866231 109.876444,5.78225467 109.733594,5.79857533 L106.261188,6.19558044 C106.157719,6.20737851 106.07973,6.29625731 106.07973,6.40243996 L106.07973,19.1891898 C106.07973,19.3221148 106.185516,19.4298705 106.316012,19.4298705 L109.836485,19.4298705 C109.96698,19.4298705 110.073152,19.3221148 110.073152,19.1891898 L110.073152,8.81317923 C110.424678,8.48047361 111.002254,8.147768 111.454161,8.147768 C111.680404,8.147768 111.831169,8.19908961 111.98174,8.48047361 C112.458935,9.27350065 112.836715,9.73185573 113.915616,9.73185573 C114.895295,9.73185573 115.771118,8.94099167 115.771118,7.71300906 C115.771118,6.45926734 114.920197,5.79424937 113.714661,5.79424937" id="Fill-16"></path>
                <path d="M24.8301557,18.7136489 C23.9761461,18.7136489 23.2981891,18.3298183 22.845896,17.7926128 L22.845896,8.48039496 C23.2478056,8.32702003 23.8757652,8.0198769 24.8803461,8.0198769 C26.7891271,8.0198769 27.8691867,9.29898448 27.8691867,12.9573698 C27.8691867,17.6392378 26.8142223,18.7136489 24.8301557,18.7136489 M27.0653675,5.79436735 C25.3071579,5.79436735 23.9010534,6.63851937 22.845896,7.55955548 L22.7204199,7.55955548 L22.768873,6.02875571 C22.7733129,5.88934183 22.6551723,5.77824332 22.5192721,5.79397409 L19.0341253,6.19530515 C18.9306557,6.20729986 18.8526675,6.2963753 18.8526675,6.4023613 L18.8526675,23.3760501 L18.8526675,24.92671 C18.8526675,25.0507863 18.9586466,25.1475305 19.0798758,25.1335695 L22.6646313,24.7210302 C22.7679078,24.7092322 22.845896,24.6201567 22.845896,24.5141707 L22.845896,23.3760501 L22.845896,21.0418017 C22.845896,20.1465247 22.8209938,19.4813101 22.8209938,19.4813101 C23.3734747,19.634685 24.2023891,19.7369349 24.7297748,19.7369349 C28.9239581,19.7369349 31.9878913,17.4089788 31.9878913,12.0876553 C31.9878913,7.40598392 29.4513437,5.79436735 27.0653675,5.79436735" id="Fill-19"></path>
            </g>
        </g>
    </g>
</svg>